<svg viewBox="320 290 440 380" xmlns="http://www.w3.org/2000/svg">
  <path fill="#4984b8" d="m353.37 672.65c-8.94-1.92-17.06-8.75-20.83-17.55-1.86-4.35-1.96-7.38-2.06-65.39l-.11-60.83 2.68-5.48c3.51-7.17 11.2-14.09 17.86-16.07 4.28-1.27 14.25-1.51 62.87-1.51 55.41 0 58 .08 63.15 2.01 7.26 2.72 12.69 7.61 16.24 14.64l2.96 5.85.31 43.5c.33 46.92-.17 54.31-4.51 66.4-6.57 18.29-21.05 30.68-39.1 33.47-8.16 1.26-94.19 2.09-99.46.96zm101.36-33.16c2.42-1.28 5.76-4.24 7.41-6.58l3-4.26.29-37.17c.32-41.88.21-42.73-6.78-49.04-2.13-1.92-5.59-3.97-7.69-4.56-5.23-1.45-69.49-1.43-74.82.03-5.43 1.48-10.11 5.21-12.54 9.98-1.95 3.81-2.01 5.49-1.74 42.77l.28 38.8 2.5 3.64c1.37 2 4.52 4.77 7 6.15l4.5 2.51 37.09.02c36.92.02 37.11.01 41.5-2.3zm120.41 33.24c-19.07-.82-27.99-2.57-38.29-7.52-13.83-6.65-22.3-17.47-26.92-34.4-1.59-5.83-1.78-11.69-1.77-56.5 0-50 0-50 2.32-55.15 5.24-11.65 7.89-12.5 41.22-13.12 20.59-.39 27.11-.21 29 .8 2.34 1.24 31.73 23.68 57.94 44.23 14.09 11.05 18.24 13.35 25.75 14.33 2.89.37 5.3 1.18 5.36 1.8.64 6.52-.6 51.15-1.6 57.89-2.67 17.96-12.75 32.33-27.87 39.73-10.47 5.12-17.75 6.95-30.13 7.56-5.5.27-12.03.62-14.5.77-2.48.15-11.7-.04-20.5-.41zm89.75-119.75c-6.07-1.2-8.76-3.07-41.89-29.08-7.43-5.83-21.89-16.98-32.16-24.78-11.87-9.02-19.5-15.55-20.99-17.95-2.95-4.76-3.8-16.07-1.61-21.32.79-1.9 6.77-10.2 13.29-18.45 18.62-23.57 32.24-40.9 43.36-55.17 5.65-7.24 12.03-14.34 14.19-15.77 9.71-6.42 20.83-5.59 31.22 2.33 14.66 11.19 37.35 28.61 52.19 40.08 30.72 23.74 31 24.04 32.72 34.14 1.69 9.92-.25 14.96-10.92 28.38-4.81 6.05-18.39 23.15-30.19 38-11.79 14.85-22.94 28.87-24.77 31.16-5.37 6.71-15.49 10.2-24.46 8.42zm9.88-35.33c2.74-1.51 7.33-6.36 13.94-14.75 34.07-43.2 33.28-42.05 33.28-48.6 0-4.79-2.15-9.34-6.13-13-7.32-6.73-50.51-38.86-53.83-40.05-5.22-1.87-8.08-1.63-13.6 1.12-4.03 2.01-6.64 4.67-13.95 14.23-4.94 6.47-13.43 17.34-18.85 24.17-5.43 6.82-10.68 13.81-11.68 15.52-4.39 7.55-3.32 15.96 2.77 21.75 2.07 1.97 11.42 9.35 20.77 16.39 9.35 7.04 19.96 15.18 23.57 18.1 3.61 2.92 7.66 5.74 9 6.27 4.27 1.7 10.39 1.23 14.7-1.15zm-320.73-59.13c-8.49-1.71-15.96-7.58-20.31-15.95l-2.34-4.5-.27-61.36-.27-61.36 2.37-5.18c3.18-6.94 7.43-11.59 13.85-15.15l5.32-2.95h61 61l5.13 2.71c6.5 3.43 10.74 7.67 14.17 14.17l2.71 5.13v62 62l-2.71 5.14c-3.25 6.15-9.32 11.6-15.66 14.03-4.23 1.62-9.68 1.8-62.13 1.97-31.63.1-59.46-.21-61.85-.69zm102.42-34.2c9.01-6.11 8.93-5.7 8.93-48.83v-37.58l-3-4.84c-1.97-3.18-4.51-5.64-7.41-7.17-4.38-2.31-4.63-2.33-40.78-2.33-30.57 0-36.97.25-40.08 1.55-4.73 1.98-7.92 4.97-10.36 9.73-1.83 3.57-1.92 5.85-1.65 42.07l.28 38.3 2.67 4.03c1.56 2.36 4.47 4.92 7 6.17 4.2 2.08 5.5 2.14 41.97 2.14l37.64.01zm83.78 32.26c-9.41-2.47-13.93-4.87-20.56-10.93-3.77-3.44-6.35-6.95-8.28-11.25l-2.8-6.25-.1-44.54c-.1-43.49-.05-44.71 2.14-51.66 5.56-17.67 18.38-29.45 37.31-34.27 11.55-2.94 51.89-6.1 78.02-6.11 18.82 0 31.24 6.81 38.49 21.11 2.78 5.49 3.24 9.41 1.01 8.55-12.45-4.78-26.45-2.18-36.33 6.74-2.21 2-9.81 11.12-16.88 20.27-7.07 9.15-21.52 27.48-32.11 40.73-23.65 29.6-24.75 31.59-24.75 45.09 0 9.68.12 10.22 3.75 16.78 2.06 3.73 3.75 6.99 3.75 7.25 0 1.23-16.33.14-22.65-1.52z"/>
</svg>
